<svg xmlns="http://www.w3.org/2000/svg" width="63" height="63" viewBox="0 0 63 63">
  <g id="call-icon" transform="translate(-1327 -2465)">
    <circle id="Ellipse_3" data-name="Ellipse 3" cx="31.5" cy="31.5" r="31.5" transform="translate(1327 2465)" fill="#19a5f6"/>
    <g id="call" transform="translate(1338.1 2474.364)">
      <path id="Path_15" data-name="Path 15" d="M2.9,14.332A11.816,11.816,0,0,1,6.3,6.147a4.769,4.769,0,0,1,6.808-.162c.973.973,1.945,1.864,2.918,2.918a4.858,4.858,0,0,1,0,6.564c-.567.648-1.216,1.216-1.783,1.783a1.9,1.9,0,0,0-.081,2.836,64.779,64.779,0,0,0,7.456,7.456,1.988,1.988,0,0,0,2.918-.081l1.7-1.7a4.9,4.9,0,0,1,6.727,0c.973.891,1.864,1.864,2.755,2.755a4.827,4.827,0,0,1-.243,6.97,11.921,11.921,0,0,1-15.4.891A63.357,63.357,0,0,1,5.412,21.626,11.537,11.537,0,0,1,2.9,14.332Zm11.913.405.405-.405a3.567,3.567,0,0,0-.243-4.619c-.891-.973-1.783-1.864-2.755-2.755A3.5,3.5,0,0,0,7.2,7.119a10.474,10.474,0,0,0-.81,13.7A64.116,64.116,0,0,0,20.81,35.241a10.771,10.771,0,0,0,8.834,1.945A9.673,9.673,0,0,0,33.453,35.4l-7.537-7.537c-.162.162-.243.405-.486.567a3.231,3.231,0,0,1-4.619.162,69.066,69.066,0,0,1-7.7-7.7,3.136,3.136,0,0,1,.162-4.538c.243-.243.486-.324.729-.567-1.459-1.459-2.836-2.755-4.133-4.133-.567-.567-.648-.891-.324-1.3.324-.324.729-.243,1.3.324C12.139,12.063,13.436,13.359,14.813,14.737ZM34.588,34.43a3.3,3.3,0,0,0,.405-4.538,33.739,33.739,0,0,0-3.4-3.4,3.266,3.266,0,0,0-4.538.405Z" fill="#fff"/>
      <path id="Path_16" data-name="Path 16" d="M32.358,20.8H26.523A3.286,3.286,0,0,1,23.2,17.482V11.323A3.286,3.286,0,0,1,26.523,8h11.1a3.286,3.286,0,0,1,3.323,3.323v6.159A3.286,3.286,0,0,1,37.626,20.8a3.284,3.284,0,0,0-3,1.3,6.478,6.478,0,0,1-1.054,1.054,1,1,0,0,1-.81.162.851.851,0,0,1-.405-.729A13.075,13.075,0,0,1,32.358,20.8Zm1.3.162.162.162c.81-1.7,2.269-1.7,3.809-1.7a1.958,1.958,0,0,0,1.864-1.945V11.4a1.914,1.914,0,0,0-2.026-2.026H26.523A1.914,1.914,0,0,0,24.5,11.4v6a2.06,2.06,0,0,0,1.135,1.864,2.589,2.589,0,0,0,1.135.243H32.6c.891,0,1.054.162,1.054,1.054Z" transform="translate(-3.848 -0.638)" fill="#fff"/>
      <path id="Path_17" data-name="Path 17" d="M15.186,29.9a4.524,4.524,0,0,1,.648.405c1.216,1.216,2.431,2.431,3.728,3.566.405.405.486.729.162,1.054s-.648.324-1.054-.081c-1.216-1.216-2.512-2.431-3.728-3.647a1.369,1.369,0,0,1-.243-.81C14.7,30.143,15.024,30.062,15.186,29.9Z" transform="translate(-2.237 -4.789)" fill="#fff"/>
      <path id="Path_18" data-name="Path 18" d="M13.129,28.9a.714.714,0,0,1-.729-.648.6.6,0,0,1,.648-.648c.405,0,.729.324.648.648A.626.626,0,0,1,13.129,28.9Z" transform="translate(-1.801 -4.353)" fill="#fff"/>
      <path id="Path_19" data-name="Path 19" d="M9.248,10.6A.6.6,0,0,1,8.6,9.948.6.6,0,0,1,9.248,9.3c.324,0,.729.324.648.648A.6.6,0,0,1,9.248,10.6Z" transform="translate(-1.081 -0.884)" fill="#fff"/>
      <path id="Path_20" data-name="Path 20" d="M29.948,15.1a.6.6,0,0,1,.648.648.639.639,0,0,1-.648.648.648.648,0,0,1,0-1.3Z" transform="translate(-5.005 -1.984)" fill="#fff"/>
      <path id="Path_21" data-name="Path 21" d="M34.6,15.748a.6.6,0,0,1-.648.648c-.405,0-.648-.162-.648-.567a.662.662,0,0,1,.648-.729C34.273,15.1,34.516,15.343,34.6,15.748Z" transform="translate(-5.763 -1.984)" fill="#fff"/>
      <path id="Path_22" data-name="Path 22" d="M38.494,15.748a.6.6,0,0,1-.648.648c-.405,0-.729-.243-.648-.648a.648.648,0,1,1,1.3,0Z" transform="translate(-6.499 -1.984)" fill="#fff"/>
    </g>
  </g>
</svg>
