<svg xmlns="http://www.w3.org/2000/svg" width="35.525" height="27.975" viewBox="0 0 35.525 27.975">
  <g id="canera" transform="translate(-2.8 -8.005)">
    <path id="Path_208" data-name="Path 208" d="M12.268,11.187A9.219,9.219,0,0,1,12.622,9.9a3.047,3.047,0,0,1,2.952-1.882q4.972-.024,9.935,0a3.061,3.061,0,0,1,3.178,2.727c.056.346.185.45.531.45,1.609-.016,3.218-.008,4.827-.008a4,4,0,0,1,4.28,4.264V31.708a4.026,4.026,0,0,1-4.28,4.272H7.072A4.022,4.022,0,0,1,2.8,31.7V15.49a4.023,4.023,0,0,1,4.3-4.3h5.173Zm8.254,23.007H33.957a2.3,2.3,0,0,0,2.6-2.6q.012-8.073,0-16.153a2.2,2.2,0,0,0-2.478-2.454H28.14c-.869,0-1.191-.338-1.2-1.215v-.386c-.008-1.175-.442-1.609-1.609-1.609h-9.05c-1.8,0-2.043.241-2.067,2.035-.008.837-.346,1.175-1.183,1.175H7.152a2.252,2.252,0,0,0-2.558,2.55V31.58a2.286,2.286,0,0,0,2.623,2.614Z" fill="#a1a0a0"/>
    <path id="Path_209" data-name="Path 209" d="M22.876,17.05a8.3,8.3,0,1,1-8.326,8.27A8.313,8.313,0,0,1,22.876,17.05Zm6.46,8.4a6.476,6.476,0,1,0-6.508,6.4A6.478,6.478,0,0,0,29.336,25.449Z" transform="translate(-2.298 -1.769)" fill="#a1a0a0"/>
    <path id="Path_210" data-name="Path 210" d="M41.062,18.673A1.641,1.641,0,1,1,39.421,17,1.643,1.643,0,0,1,41.062,18.673Z" transform="translate(-6.84 -1.759)" fill="#a1a0a0"/>
  </g>
</svg>
