<svg xmlns="http://www.w3.org/2000/svg" width="29" height="29" viewBox="0 0 29 29">
  <g id="close" transform="translate(-840 -587)">
    <circle id="Ellipse_4" data-name="Ellipse 4" cx="14.5" cy="14.5" r="14.5" transform="translate(840 587)" fill="#fa5050"/>
    <g id="close-2" data-name="close" transform="translate(842.095 589.126)">
      <path id="Path_211" data-name="Path 211" d="M11.9,12.633a1.255,1.255,0,0,1-.2-.134q-2.28-2.27-4.55-4.546a.6.6,0,0,1-.019-.937.6.6,0,0,1,.844.076L9.812,8.937l2.756,2.756c.041.041.086.08.143.134.057-.054.112-.1.159-.153q2.275-2.275,4.546-4.55a.644.644,0,0,1,.631-.229.6.6,0,0,1,.274,1.013c-.43.443-.87.873-1.306,1.309l-3.32,3.32c-.041.041-.083.086-.185.194a.956.956,0,0,1,.21.121Q16,15.123,18.274,17.4a.611.611,0,0,1,.2.685.592.592,0,0,1-1,.2c-.443-.436-.879-.879-1.322-1.319l-3.307-3.307c-.038-.038-.08-.073-.134-.127l-.169.159q-2.275,2.275-4.546,4.55a.63.63,0,0,1-.634.22A.6.6,0,0,1,7.1,17.441c.43-.44.87-.873,1.306-1.309l3.32-3.32C11.768,12.773,11.806,12.729,11.9,12.633Z" transform="translate(0 0)" fill="#fff"/>
    </g>
  </g>
</svg>
