<svg xmlns="http://www.w3.org/2000/svg" width="43.4" height="43.7" viewBox="0 0 43.4 43.7">
  <g id="crew" transform="translate(-2.9 -3)">
    <path id="Path_8" data-name="Path 8" d="M28.1,31.7V42.8a4.94,4.94,0,0,0,.5,2.4c.4.8.1,1.3-.8,1.3H21.1c-.9,0-1.2-.5-.8-1.3a4.94,4.94,0,0,0,.5-2.4V31.4h-.1c-.1.2-.2.3-.3.5l-1.8,3a2.167,2.167,0,0,1-3.8,0c-.5-.8-.9-1.7-1.3-2.5a1.47,1.47,0,0,0-.5-.6V43a4.794,4.794,0,0,0,.5,2.3c.5.8.1,1.3-.8,1.3H6.1c-.9,0-1.3-.5-.8-1.3a4.193,4.193,0,0,0,.5-2.2V36.5h-2a.8.8,0,0,1-.9-.9V27.8a2.881,2.881,0,0,1,2.8-2.9h.8a5.4,5.4,0,0,1-.6-4.1,3.564,3.564,0,0,1,3.6-3.1A3.485,3.485,0,0,1,13,20.9a5.359,5.359,0,0,1-.6,3.9,4.331,4.331,0,0,1,.5.1,2.913,2.913,0,0,1,2.9,2c.3.8.7,1.6,1.1,2.6.4-.8.8-1.5,1.1-2.2A3.27,3.27,0,0,1,21.7,25a5.966,5.966,0,0,1-.6-4.1,3.477,3.477,0,0,1,3.5-3.1,3.576,3.576,0,0,1,3.6,3.1,6.494,6.494,0,0,1-.6,4.1,4.331,4.331,0,0,1,.5.1A2.788,2.788,0,0,1,30.9,27c.4.9.8,1.7,1.2,2.7a13.822,13.822,0,0,0,1-2.2,3.277,3.277,0,0,1,3.7-2.4,5.52,5.52,0,0,1-.6-4.1,3.477,3.477,0,0,1,3.5-3.1,3.569,3.569,0,0,1,3.6,2.9,5.646,5.646,0,0,1-.6,4.2h.9a2.919,2.919,0,0,1,2.7,2.8v7.9a.8.8,0,0,1-.9.9H43.5a4.331,4.331,0,0,1-.1.5V44a3.36,3.36,0,0,0,.5,1.4c.4.8.1,1.3-.8,1.3H36.4c-.9,0-1.2-.5-.8-1.3a4.558,4.558,0,0,0,.5-2.3V31.6a2.736,2.736,0,0,1-.4.5l-1.8,3.3A1.961,1.961,0,0,1,32,36.6a2.051,2.051,0,0,1-1.9-1.3c-.6-1.1-1.2-2.3-1.8-3.4C28.2,31.6,28.1,31.7,28.1,31.7Zm16.6,3.1V27.3a1.135,1.135,0,0,0-1.2-1.1c-1-.1-2,0-3.1,0v6.4H39V26.1H36.3a1.715,1.715,0,0,0-1.6,1c-1,2.2-2.1,4.4-3.1,6.5a.349.349,0,0,1-.1.2c.1.3.1.6.3.8.1.1.5-.1.7-.2a2.186,2.186,0,0,0,.3-.5c1-1.9,2.1-3.8,3.1-5.6a2.186,2.186,0,0,1,.3-.5c.2-.1.5-.3.7-.2a1.47,1.47,0,0,1,.5.6c.1.2,0,.4,0,.7v16h1.5V35.6h1.4v8.7c0,.2.2.6.3.6a4.819,4.819,0,0,0,1.2,0c0-.5-.1-.9-.1-1.3V28.9c0-.2-.1-.5.1-.7a.935.935,0,0,1,.7-.5c.2,0,.5.3.6.5a1.483,1.483,0,0,1,.1.7v6A8.084,8.084,0,0,1,44.7,34.8Zm-21-2.1V26.2H21a1.715,1.715,0,0,0-1.6,1c-1,2.1-2.1,4.2-3.1,6.2-.2.4-.3.8.1,1,.5.3.7-.1,1-.4.5-.9,1.1-1.8,1.6-2.7.6-1,1.1-2,1.7-2.9.2-.4.4-.8,1-.6.5.1.6.6.6,1V45h.5c.9,0,.9,0,.9-.9V35.7h1.4v8.1c0,1.4,0,1.4,1.5,1.3a.1.1,0,0,0,.1-.1c0-.3-.1-.5-.1-.8V28.7c0-.3.3-.8.5-.8.2-.1.7.2.9.5.7,1.2,1.3,2.4,2,3.6a2.092,2.092,0,0,0,.4.6h.3c.1-.6.5-1.3.3-1.8a22.133,22.133,0,0,0-1.6-3.5,1.591,1.591,0,0,0-.9-.9c-1.1-.1-2.2,0-3.4,0v6.4A6.6,6.6,0,0,0,23.7,32.7ZM10,26.2v5.4c0,1.3-.1,1.3-1.5,1V26.3c-.2,0-.2-.1-.3-.1H5.9c-1.2,0-1.7.5-1.7,1.7v5.8c0,1.2,0,1.2,1.2,1.1a.31.31,0,0,0,.2-.1V29c0-.2-.1-.6,0-.7.2-.3.5-.6.7-.6s.5.4.7.6c.1.2,0,.4,0,.7V45H8.4V35.7H9.9V45h1.5c0-.4-.1-.8-.1-1.2V28.9c0-.2-.1-.4,0-.5.1-.2.3-.6.5-.6.2-.1.5.1.8.3.2.1.2.3.3.5L15,32.5h.2c.2-.6.6-1.2.4-1.7A24.3,24.3,0,0,0,14,27.1a1.779,1.779,0,0,0-1.1-.8A13.314,13.314,0,0,0,10,26.2Zm16.6-4.4v-.9a2.161,2.161,0,0,0-4.3-.1,6.054,6.054,0,0,0,0,1.9,2.174,2.174,0,0,0,2.2,1.9,2.09,2.09,0,0,0,2.1-2Zm-15.1,0h0c-.1-.3,0-.5-.1-.8a2.258,2.258,0,0,0-2.1-2.1,2.18,2.18,0,0,0-2.2,2v1.8a2.142,2.142,0,0,0,1.9,2,2.058,2.058,0,0,0,2.2-1.5A5.768,5.768,0,0,0,11.5,21.8Zm30.3,0h0v-.9a2.106,2.106,0,0,0-4.2.1v1.7a2.156,2.156,0,0,0,4.3,0A2.769,2.769,0,0,1,41.8,21.8Z" fill="#19a5f6"/>
    <path id="Path_9" data-name="Path 9" d="M17.4,6c-.8.5-1.6.9-2.5,1.4a16.179,16.179,0,0,1,1,1.8.988.988,0,0,1-.2,1.4l-1.8,1.8a.948.948,0,0,1-1.3.2c-.6-.3-1.1-.7-1.8-1-.5.8-1,1.6-1.5,2.5.5.3,1,.6,1.4.8,1.1.6,1.1.8.5,2.1-.4-.3-1.2,0-1.3-.8,0-.1-.2-.2-.4-.3L8,15c-.5-.3-.6-.7-.3-1.1.7-1.2,1.3-2.4,2-3.5.3-.5.7-.6,1.3-.3.6.4,1.3.7,2,1.2a17.41,17.41,0,0,0,1.2-1.4.629.629,0,0,0,0-.6l-.9-1.5c-.3-.6-.3-1,.3-1.3,1.1-.7,2.3-1.3,3.4-2,.6-.3.9-.2,1.3.4l.9,1.5a.481.481,0,0,0,.6.2c1.7-.4,1.6-.4,1.6-2.1V3.8a.736.736,0,0,1,.8-.8h4.1a.736.736,0,0,1,.8.8V6c.6.2,1.2.5,1.8.7a1.332,1.332,0,0,0,.5-.3l.9-1.5c.4-.6.7-.7,1.3-.4,1.1.6,2.3,1.3,3.4,2,.6.4.7.7.3,1.3l-.9,1.5a.629.629,0,0,0,0,.6c.3.4.8.8,1.2,1.3.7-.4,1.3-.7,1.9-1.1.7-.4,1-.4,1.4.4.6,1.1,1.3,2.2,1.9,3.3.4.6.3.9-.4,1.3a7.459,7.459,0,0,0-1.2.7c-.3.2-.4.5-.7.7-.4.2-.8.3-1.2.5-.7-1.2-.6-1.5.4-2.1.4-.3.9-.5,1.3-.8a.31.31,0,0,1,.1-.2c-.4-.8-.9-1.6-1.4-2.4a16.179,16.179,0,0,1-1.8,1,.948.948,0,0,1-1.3-.2c-.6-.7-1.3-1.3-2-2a.8.8,0,0,1-.2-1.1c.4-.6.7-1.2,1.1-1.9-.8-.5-1.6-.9-2.5-1.4a16.179,16.179,0,0,0-1,1.8,1.011,1.011,0,0,1-1.2.5c-.8-.2-1.6-.5-2.5-.7a.919.919,0,0,1-.9-1V4.9c0-.3-.1-.5-.5-.5h-2c-.4,0-.5.2-.5.5V6.6a.8.8,0,0,1-.7.9c-.9.2-1.8.5-2.7.7a.9.9,0,0,1-1.1-.4A2.113,2.113,0,0,0,17.4,6Z" fill="#19a5f6"/>
    <path id="Path_10" data-name="Path 10" d="M31.9,25.8c-.4-.3-.7-.5-1-.7a21.159,21.159,0,0,0,.9-3.1,7.4,7.4,0,0,0-14.6-2.4,6.383,6.383,0,0,0,.6,4.7c.4.7.2,1-.4,1.2-.1.1-.3.1-.4.2-1.9-2.4-2.3-7.5,1.2-10.9a8.844,8.844,0,0,1,13.7,11Z" fill="#19a5f6"/>
  </g>
</svg>
