<svg xmlns="http://www.w3.org/2000/svg" width="63" height="63" viewBox="0 0 63 63">
  <g id="discover-icon" transform="translate(-523 -2465)">
    <circle id="Ellipse_1" data-name="Ellipse 1" cx="31.5" cy="31.5" r="31.5" transform="translate(523 2465)" fill="#19a5f6"/>
    <g id="sound" transform="translate(532.1 2475.757)">
      <path id="Path_11" data-name="Path 11" d="M24.553,20.693V34.115a1.02,1.02,0,0,1-1.668.758c-.3-.227-.607-.455-.986-.758-2.957-2.351-5.839-4.7-8.8-7.052a1.463,1.463,0,0,0-.758-.227H8.175a2.091,2.091,0,0,1-2.275-2.2V16.674a2.054,2.054,0,0,1,2.275-2.2h4.095a1.59,1.59,0,0,0,.834-.3c3.109-2.5,6.218-4.929,9.327-7.431.152-.076.227-.227.379-.3A1,1,0,0,1,24.4,7.2v.531C24.553,12.049,24.553,16.371,24.553,20.693ZM22.506,9.471c-.152.076-.227.152-.3.152-2.578,2.047-5.08,4.095-7.658,6.142a1.129,1.129,0,0,0-.3.682v8.417a.84.84,0,0,0,.379.758c2.5,1.971,5,4.019,7.507,5.99a1.657,1.657,0,0,0,.379.227ZM12.118,24.788V16.6H8.023v8.189Z" transform="translate(0 0)" fill="#fff"/>
      <path id="Path_12" data-name="Path 12" d="M44.99,21.865A14.352,14.352,0,0,1,40.895,31.95a.955.955,0,0,1-1.441.227,1.065,1.065,0,0,1-.076-1.668,13.519,13.519,0,0,0,2.5-3.64,12.347,12.347,0,0,0-1.213-11.981A13.139,13.139,0,0,0,39.378,13.3,1.1,1.1,0,0,1,39.3,11.7a1.055,1.055,0,0,1,1.592.152A14.5,14.5,0,0,1,44.99,21.865Z" transform="translate(-8.001 -1.248)" fill="#fff"/>
      <path id="Path_13" data-name="Path 13" d="M39.862,22.437a10.763,10.763,0,0,1-2.806,7.507,1.093,1.093,0,0,1-1.668.227,1.046,1.046,0,0,1,.076-1.592,8.092,8.092,0,0,0,2.275-6.142,7.767,7.767,0,0,0-2.047-5l-.379-.379a1.02,1.02,0,1,1,1.517-1.365,10.157,10.157,0,0,1,2.654,4.625A18.414,18.414,0,0,1,39.862,22.437Z" transform="translate(-7.043 -2.198)" fill="#fff"/>
    </g>
  </g>
</svg>
