<svg xmlns="http://www.w3.org/2000/svg" width="20.2" height="20.2" viewBox="0 0 20.2 20.2">
  <g id="eye-slash" transform="translate(-172 -188)" opacity="0.66">
    <path id="Vector" d="M5.143.884.884,5.143A3.011,3.011,0,1,1,5.143.884Z" transform="translate(179.087 195.087)" fill="none" stroke="#2e3a59" stroke-linecap="round" stroke-linejoin="round" stroke-width="1"/>
    <path id="Vector-2" data-name="Vector" d="M13.134,1.717A8.107,8.107,0,0,0,8.236,0C5.265,0,2.5,1.751.568,4.781a4.482,4.482,0,0,0,0,4.368,12.058,12.058,0,0,0,2.281,2.668" transform="translate(173.864 191.139)" fill="none" stroke="#2e3a59" stroke-linecap="round" stroke-linejoin="round" stroke-width="1"/>
    <path id="Vector-3" data-name="Vector" d="M0,9.763a7.756,7.756,0,0,0,3.013.623c2.971,0,5.74-1.751,7.668-4.781a4.482,4.482,0,0,0,0-4.368A13.654,13.654,0,0,0,9.789,0" transform="translate(179.087 194.674)" fill="none" stroke="#2e3a59" stroke-linecap="round" stroke-linejoin="round" stroke-width="1"/>
    <path id="Vector-4" data-name="Vector" d="M2.374,0A3,3,0,0,1,0,2.374" transform="translate(182.681 198.689)" fill="none" stroke="#2e3a59" stroke-linecap="round" stroke-linejoin="round" stroke-width="1"/>
    <path id="Vector-5" data-name="Vector" d="M6.287,0,0,6.287" transform="translate(173.683 200.23)" fill="none" stroke="#2e3a59" stroke-linecap="round" stroke-linejoin="round" stroke-width="1"/>
    <path id="Vector-6" data-name="Vector" d="M6.287,0,0,6.287" transform="translate(184.23 189.683)" fill="none" stroke="#2e3a59" stroke-linecap="round" stroke-linejoin="round" stroke-width="1"/>
    <path id="Vector-7" data-name="Vector" d="M0,0H20.2V20.2H0Z" transform="translate(192.2 208.2) rotate(180)" fill="none" opacity="0"/>
  </g>
</svg>
