<svg xmlns="http://www.w3.org/2000/svg" width="44.7" height="47.4" viewBox="0 0 44.7 47.4">
  <g id="graph" transform="translate(-3.1 -1)">
    <path id="Path_2" data-name="Path 2" d="M6,46.6v-8a2.531,2.531,0,0,1,2.8-2.8h3.8a2.561,2.561,0,0,1,2.8,2.9v7.9h5.1V31a2.544,2.544,0,0,1,.8-2.2,3.96,3.96,0,0,1,1.9-.7c1.3-.1,2.7,0,4.1,0a2.531,2.531,0,0,1,2.8,2.8V46.6h5.1V17.7a2.928,2.928,0,0,1,.7-2.2,2.782,2.782,0,0,1,2.1-.8h4a2.531,2.531,0,0,1,2.8,2.8V45.7c0,.7.1,1,.9.9H47a.906.906,0,0,1,0,1.8H4.6c-1.1,0-1.5-.3-1.5-.9,0-.7.4-.9,1.5-.9Zm36.9-.1A4.331,4.331,0,0,1,43,46V17.5c0-.7-.3-1-1-1H38.4c-1.1,0-1.2.1-1.2,1.2V46.5Zm-14.7.1a.31.31,0,0,0,.1-.2V30.7a.736.736,0,0,0-.8-.8H23.3a.736.736,0,0,0-.8.8V45.9c0,.4-.1.8.5.8A45.558,45.558,0,0,1,28.2,46.6Zm-14.7,0,.1-.2v-8c0-.6-.4-.7-.9-.7h-4c-.7,0-.9.3-.9,1v7.4c0,.5.2.6.7.6h4.1A3.085,3.085,0,0,1,13.5,46.6Z" fill="#19a5f6"/>
    <path id="Path_3" data-name="Path 3" d="M32.4,12l9.1-9.1H38.3a.9.9,0,0,1-1-1c0-.6.4-.9,1-.9h5.3c.9,0,1.2.3,1.2,1.2V7.1c0,.6-.2,1.1-.9,1.1-.5.1-.9-.4-1-1.2V4.4a1.38,1.38,0,0,0-.4-.3,2.506,2.506,0,0,1-.4.7l-8.7,8.7c-.9.9-1.2.9-2.1,0l-3.2-3.2a7.018,7.018,0,0,1-.6.9c-4.9,5-9.9,9.9-14.8,14.8-.8.8-1.3.9-1.7.4s-.3-1,.4-1.7c5.5-5.1,10.7-10.4,16-15.7.8-.8,1.2-.8,2,0Z" fill="#19a5f6"/>
    <path id="Path_4" data-name="Path 4" d="M9.6,29.1a.839.839,0,0,1-.9.9c-.5,0-1-.4-.9-.9a.9.9,0,0,1,1.8,0Z" fill="#19a5f6"/>
  </g>
</svg>
