<svg xmlns="http://www.w3.org/2000/svg" width="87.87" height="21.72" viewBox="0 0 87.87 21.72">
  <path id="logo" d="M2.49,0H17.88V-3.96H7.35V-21H2.49ZM30.42.36c6.6,0,11.49-4.59,11.49-10.86S37.02-21.36,30.42-21.36c-6.63,0-11.49,4.62-11.49,10.86S23.79.36,30.42.36Zm0-4.14a6.406,6.406,0,0,1-6.57-6.72,6.406,6.406,0,0,1,6.57-6.72,6.406,6.406,0,0,1,6.57,6.72A6.406,6.406,0,0,1,30.42-3.78Zm29.34-.9a7.715,7.715,0,0,1-3.78.9,6.482,6.482,0,0,1-6.81-6.72,6.465,6.465,0,0,1,6.87-6.72,7.106,7.106,0,0,1,5.43,2.37l3.12-2.88a11.2,11.2,0,0,0-8.79-3.63c-6.69,0-11.55,4.53-11.55,10.86S49.11.36,55.71.36A14.491,14.491,0,0,0,64.2-2.31v-8.52H59.76ZM78.87.36c6.6,0,11.49-4.59,11.49-10.86S85.47-21.36,78.87-21.36c-6.63,0-11.49,4.62-11.49,10.86S72.24.36,78.87.36Zm0-4.14A6.406,6.406,0,0,1,72.3-10.5a6.406,6.406,0,0,1,6.57-6.72,6.406,6.406,0,0,1,6.57,6.72A6.406,6.406,0,0,1,78.87-3.78Z" transform="translate(-2.49 21.36)" fill="#fff"/>
</svg>
