<svg xmlns="http://www.w3.org/2000/svg" width="63" height="63" viewBox="0 0 63 63">
  <g id="partner-icon" transform="translate(-923 -2465)">
    <circle id="Ellipse_2" data-name="Ellipse 2" cx="31.5" cy="31.5" r="31.5" transform="translate(923 2465)" fill="#19a5f6"/>
    <g id="partner" transform="translate(934.146 2472.307)">
      <path id="Path_14" data-name="Path 14" d="M16.067,34.161v2.2c0,.815-.326,1.059-1.059,1.059H2.951c-.815,0-1.059-.326-1.059-1.059V28.54a9.461,9.461,0,0,1,2.281-6.273,1.125,1.125,0,0,0,.244-.326,6.385,6.385,0,0,1-2.525-5.784,5.861,5.861,0,0,1,2.2-4.073,6.277,6.277,0,0,1,8.717.815,6.423,6.423,0,0,1-1.466,9.532,1.43,1.43,0,0,0,.326.407,17.273,17.273,0,0,1,3.014,4.97.681.681,0,0,0,.733.489h9.532a.847.847,0,0,0,.652-.326,18.184,18.184,0,0,1,3.5-5.54A6.338,6.338,0,0,1,26.087,16.4a5.975,5.975,0,0,1,2.037-4.073,6.285,6.285,0,1,1,7.984,9.695c.489.815,1.059,1.548,1.466,2.281a8.507,8.507,0,0,1,.978,3.992v8.147c0,.733-.244,1.059-1.059,1.059H25.354c-.815,0-1.059-.326-1.059-1.059v-2.2C21.607,34.161,18.837,34.161,16.067,34.161Zm-1.792,0H11.26a1.273,1.273,0,0,1-1.222-.652c-1.3-2.037-2.525-4.073-3.829-6.192,0-.163-.163-.244-.163-.407a1.463,1.463,0,0,1,.244-.9,1.081,1.081,0,0,1,.9-.081c.163,0,.326.244.489.489,1.141,1.874,2.363,3.748,3.5,5.621a.825.825,0,0,0,.733.489h6.843a1.29,1.29,0,0,0,1.466-1.3c0-.733-.57-1.222-1.466-1.222H14.682c-.815,0-.978-.081-1.222-.9a17.744,17.744,0,0,0-3.422-5.7.737.737,0,0,0-.815-.244A5.984,5.984,0,0,1,6.291,23c-.326-.081-.489-.081-.652.163a7.664,7.664,0,0,0-2.118,5.3v7.251H14.356A9.355,9.355,0,0,1,14.275,34.161Zm11.813,1.629h4.155V27.318a.819.819,0,0,1,1.629,0v8.473h4.97c0-.163.081-.244.081-.326V27.888A7.238,7.238,0,0,0,34.8,23.082a1.177,1.177,0,0,0-.57-.163,7.147,7.147,0,0,1-2.933.163.781.781,0,0,0-.815.244,17.479,17.479,0,0,0-3.5,5.784A18.66,18.66,0,0,0,26.087,35.791Zm-18-14.175a4.6,4.6,0,0,0,0-9.206,4.625,4.625,0,0,0-4.644,4.562A4.7,4.7,0,0,0,8.083,21.615Zm28.839-4.644a4.6,4.6,0,1,0-9.206.081,4.572,4.572,0,0,0,4.644,4.562A4.624,4.624,0,0,0,36.923,16.972ZM21.77,30.007v2.444h2.444c.081,0,.326-.163.326-.244.163-.733.244-1.466.407-2.2Z" transform="translate(0)" fill="#fff"/>
    </g>
  </g>
</svg>
