<svg xmlns="http://www.w3.org/2000/svg" width="17.553" height="17.66" viewBox="0 0 17.553 17.66">
  <g id="plane-icon" transform="translate(-3.377 -1.87)">
    <path id="Path_212" data-name="Path 212" d="M13.36,12.342l-1.5,1.5c-.365.365-.77.689-1.135,1.054a.566.566,0,0,0-.122.365c.041.932.081,1.824.122,2.757a1.385,1.385,0,0,1-.892,1.419.991.991,0,0,1-1.378-.608c-.2-.608-.405-1.257-.608-1.865a1.69,1.69,0,0,1-.081-.243c-.324.162-.649.324-.973.527a.826.826,0,0,1-1.135-1.135c.2-.324.365-.649.527-.973-.527-.162-1.054-.324-1.541-.527-.2-.081-.405-.122-.608-.2a1,1,0,0,1-.608-1.257,1.5,1.5,0,0,1,1.459-1.014l2.757.122a.412.412,0,0,0,.405-.2l2.27-2.392a.611.611,0,0,1,.324-.162c-.486-.365-.892-.689-1.3-.973L5.211,5.49A.7.7,0,0,1,5.13,4.274l.486-.486A1.229,1.229,0,0,1,7.035,3.5,22.682,22.682,0,0,0,9.468,4.72a.3.3,0,0,0,.405-.081c.324-.324.649-.649.973-1.014a.725.725,0,0,1,1.135,0c.243.243.527.486.77.77a.737.737,0,0,1,0,1.095c-.162.162-.324.284-.486.446a8.678,8.678,0,0,0,1.135.486c.081.041.2-.081.284-.162,1.216-1.216,2.432-2.392,3.608-3.608a2.588,2.588,0,0,1,1.3-.73,1.818,1.818,0,0,1,2.23,2.392,3.615,3.615,0,0,1-.608,1.095c-.527.568-1.095,1.095-1.622,1.662-.122.122-.284.243-.446.081-.2-.162-.041-.324.081-.446l1.541-1.541a2.12,2.12,0,0,0,.608-1.095A1.3,1.3,0,0,0,18.63,2.49a1.884,1.884,0,0,0-.932.568c-2.96,2.919-5.879,5.838-8.8,8.8a11.247,11.247,0,0,0-1.784,2.716l.284-.284L7.684,14A.814.814,0,0,1,8.9,13.963.846.846,0,0,1,8.86,15.18c-.2.2-.365.365-.608.568h.122a12.685,12.685,0,0,0,2.96-2.108c1.905-1.946,3.851-3.892,5.8-5.8l.081-.081a.263.263,0,1,1,.365.365L16.522,9.18a.33.33,0,0,0-.081.446,4.961,4.961,0,0,1,.405.932l.446-.446a.752.752,0,0,1,1.135,0c.243.243.527.486.77.77a.737.737,0,0,1,0,1.095,11.489,11.489,0,0,1-1.014.973.375.375,0,0,0-.081.486c.365.811.73,1.622,1.095,2.392a1.248,1.248,0,0,1-.284,1.622l-.405.405a.7.7,0,0,1-1.176-.081c-.811-1.095-1.622-2.23-2.432-3.324C14.373,13.761,13.887,13.072,13.36,12.342ZM5.616,4.517c-.446.324-.446.405,0,.73.568.405,1.135.811,1.7,1.257,1.135.851,2.27,1.662,3.405,2.514.122.081.243.122.365,0a2.249,2.249,0,0,1,.324-.243c-.486-.365-.892-.649-1.3-.932-.162-.122-.405-.243-.243-.486.2-.243.365-.041.527.081.446.324.851.608,1.216.892.486-.486.932-.932,1.419-1.378-.405-.162-.811-.365-1.216-.568-1.7-.811-3.365-1.541-5.068-2.311a.685.685,0,0,0-.73.041,1.514,1.514,0,0,0,.284.243c.932.689,1.905,1.378,2.838,2.108.162.122.243.243.122.405s-.243.122-.405.041C7.806,6.1,6.711,5.328,5.616,4.517Zm10.338,5.27-1.419,1.419c1.378,1.865,2.757,3.73,4.135,5.635a.626.626,0,0,0,.081-.73C18.225,14.9,17.7,13.72,17.171,12.5,16.765,11.612,16.36,10.72,15.955,9.788ZM7.481,12.828c-1.014-.041-1.905-.081-2.838-.081a.818.818,0,0,0-.77.649A.466.466,0,0,0,4.157,14c.689.243,1.378.446,2.108.689.041,0,.162,0,.2-.041C6.792,14,7.116,13.436,7.481,12.828Zm2.554,2.554c-.608.365-1.176.689-1.743,1.014a.249.249,0,0,0-.041.243c.2.689.446,1.378.649,2.068a.454.454,0,0,0,.649.284.864.864,0,0,0,.608-.811v-.892C10.117,16.639,10.076,16.031,10.035,15.382Zm4.135-3.811-.122.122c-.365.365-.324.284-.081.649C15.184,14,16.4,15.626,17.617,17.288c.324.405.365.405.73.041l.041-.041C16.968,15.342,15.59,13.477,14.171,11.572Zm3.608,1.054,1.054-1.054a.228.228,0,0,0,0-.365c-.243-.243-.487-.527-.77-.77-.081-.041-.243-.122-.284-.081-.243.2-.446.405-.649.608a.076.076,0,0,0,0,.122C17.373,11.612,17.576,12.1,17.779,12.626ZM10.238,5.044c.324.162.608.284.892.405.73.324.73.324,1.3-.284l.041-.041a.26.26,0,0,0-.041-.365l-.77-.77a.228.228,0,0,0-.365,0ZM8.657,14.531c-.081-.081-.122-.243-.2-.243a.545.545,0,0,0-.365.081c-.649.649-1.3,1.3-1.987,1.946-.162.162-.2.324-.041.446.162.162.324.081.446-.041l1.946-1.946C8.535,14.734,8.576,14.612,8.657,14.531Z" fill="#fff"/>
    <path id="Path_213" data-name="Path 213" d="M39.391,5.2a1.649,1.649,0,0,1,1.541,1.459.469.469,0,0,1-.2.284.41.41,0,0,1-.284-.162c-.081-.081-.081-.243-.122-.365a1.2,1.2,0,0,0-.892-.689c-.162-.041-.284-.122-.243-.284A.64.64,0,0,1,39.391,5.2Z" transform="translate(-21.288 -1.98)" fill="#fff"/>
  </g>
</svg>
