<svg xmlns="http://www.w3.org/2000/svg" width="51.248" height="51.56" viewBox="0 0 51.248 51.56">
  <g id="plane" transform="translate(-3.378 -1.87)">
    <path id="Path_5" data-name="Path 5" d="M32.522,32.444l-4.38,4.38c-1.065,1.065-2.249,2.012-3.314,3.077a1.652,1.652,0,0,0-.355,1.065c.118,2.722.237,5.326.355,8.049a4.044,4.044,0,0,1-2.6,4.143A2.892,2.892,0,0,1,18.2,51.382c-.592-1.775-1.184-3.669-1.775-5.445a4.935,4.935,0,0,1-.237-.71c-.947.473-1.894.947-2.841,1.539a2.412,2.412,0,0,1-3.314-3.314c.592-.947,1.065-1.894,1.539-2.841-1.539-.473-3.077-.947-4.5-1.539-.592-.237-1.184-.355-1.775-.592a2.908,2.908,0,0,1-1.775-3.669,4.378,4.378,0,0,1,4.261-2.959c2.722.118,5.326.237,8.049.355a1.2,1.2,0,0,0,1.184-.592c2.249-2.367,4.38-4.616,6.628-6.984a1.783,1.783,0,0,1,.947-.473c-1.42-1.065-2.6-2.012-3.788-2.841L8.731,12.44c-1.42-1.065-1.539-2.249-.237-3.551l1.42-1.42a3.587,3.587,0,0,1,4.143-.829,66.222,66.222,0,0,0,7.1,3.551.889.889,0,0,0,1.184-.237c.947-.947,1.894-1.894,2.841-2.959A2.118,2.118,0,0,1,28.5,7c.71.71,1.539,1.42,2.249,2.249a2.153,2.153,0,0,1,0,3.2c-.473.473-.947.829-1.42,1.3a25.337,25.337,0,0,0,3.314,1.42c.237.118.592-.237.829-.473C37.02,11.138,40.571,7.705,44,4.154a7.555,7.555,0,0,1,3.788-2.131c4.5-.947,7.93,2.6,6.51,6.984a10.553,10.553,0,0,1-1.775,3.2c-1.539,1.657-3.2,3.2-4.735,4.853-.355.355-.829.71-1.3.237-.592-.473-.118-.947.237-1.3l4.5-4.5A6.188,6.188,0,0,0,53,8.3c.592-3.433-1.775-5.563-5.09-4.616a5.5,5.5,0,0,0-2.722,1.657C36.546,13.86,28.024,22.383,19.5,31.023c-2.249,2.249-3.669,5.09-5.208,7.93l.829-.829.829-.829c1.184-1.065,2.6-1.184,3.551-.118a2.47,2.47,0,0,1-.118,3.551c-.592.592-1.065,1.065-1.775,1.657h.355A37.035,37.035,0,0,0,26.6,36.231C32.167,30.55,37.848,24.868,43.53,19.305l.237-.237a.768.768,0,1,1,1.065,1.065l-3.077,3.077a.963.963,0,0,0-.237,1.3A14.486,14.486,0,0,1,42.7,27.236l1.3-1.3a2.2,2.2,0,0,1,3.314,0c.71.71,1.539,1.42,2.249,2.249a2.152,2.152,0,0,1,0,3.2,33.545,33.545,0,0,1-2.959,2.841,1.1,1.1,0,0,0-.237,1.42c1.065,2.367,2.131,4.735,3.2,6.984.829,2.012.71,3.2-.829,4.735l-1.184,1.184a2.049,2.049,0,0,1-3.433-.237c-2.367-3.2-4.735-6.51-7.1-9.706C35.481,36.587,34.061,34.574,32.522,32.444ZM9.914,9.6c-1.3.947-1.3,1.184,0,2.131,1.657,1.184,3.314,2.367,4.971,3.669,3.314,2.486,6.628,4.853,9.943,7.339.355.237.71.355,1.065,0a6.566,6.566,0,0,1,.947-.71c-1.42-1.065-2.6-1.894-3.788-2.722-.473-.355-1.184-.71-.71-1.42.592-.71,1.065-.118,1.539.237,1.3.947,2.486,1.775,3.551,2.6,1.42-1.42,2.722-2.722,4.143-4.024-1.184-.473-2.367-1.065-3.551-1.657-4.971-2.367-9.824-4.5-14.8-6.747a2,2,0,0,0-2.131.118,4.422,4.422,0,0,0,.829.71c2.722,2.012,5.563,4.024,8.286,6.155.473.355.71.71.355,1.184s-.71.355-1.184.118C16.306,14.216,13.11,11.967,9.914,9.6ZM40.1,24.987,35.955,29.13C39.979,34.574,44,40.019,48.028,45.582a1.826,1.826,0,0,0,.237-2.131c-1.539-3.551-3.077-6.984-4.616-10.535C42.465,30.313,41.281,27.709,40.1,24.987ZM15.359,33.864c-2.959-.118-5.563-.237-8.286-.237a2.389,2.389,0,0,0-2.249,1.894A1.36,1.36,0,0,0,5.653,37.3c2.012.71,4.024,1.3,6.155,2.012.118,0,.473,0,.592-.118C13.347,37.3,14.294,35.64,15.359,33.864Zm7.457,7.457c-1.775,1.065-3.433,2.012-5.09,2.959a.727.727,0,0,0-.118.71C18.2,47,18.91,49.015,19.5,51.027a1.325,1.325,0,0,0,1.894.829,2.522,2.522,0,0,0,1.775-2.367v-2.6C23.053,44.99,22.934,43.215,22.816,41.321ZM34.889,30.195l-.355.355c-1.065,1.065-.947.829-.237,1.894,3.551,4.853,7.1,9.588,10.653,14.441.947,1.184,1.065,1.184,2.131.118l.118-.118C43.056,41.2,39.032,35.758,34.889,30.195Zm10.535,3.077L48.5,30.195a.666.666,0,0,0,0-1.065c-.71-.71-1.42-1.539-2.249-2.249-.237-.118-.71-.355-.829-.237-.71.592-1.3,1.184-1.894,1.775a.222.222,0,0,0,0,.355C44.24,30.313,44.832,31.734,45.424,33.272ZM23.408,11.138c.947.473,1.775.829,2.6,1.184,2.131.947,2.131.947,3.788-.829l.118-.118a.76.76,0,0,0-.118-1.065L27.551,8.061a.666.666,0,0,0-1.065,0Zm-4.616,27.7c-.237-.237-.355-.71-.592-.71a1.591,1.591,0,0,0-1.065.237c-1.894,1.894-3.788,3.788-5.8,5.682-.473.473-.592.947-.118,1.3.473.473.947.237,1.3-.118L18.2,39.546C18.437,39.427,18.555,39.072,18.792,38.835Z" transform="translate(0 0)" fill="#19a5f6"/>
    <path id="Path_6" data-name="Path 6" d="M39.8,5.2a4.816,4.816,0,0,1,4.5,4.261,1.37,1.37,0,0,1-.592.829,1.2,1.2,0,0,1-.829-.473c-.237-.237-.237-.71-.355-1.065a3.516,3.516,0,0,0-2.6-2.012c-.473-.118-.829-.355-.71-.829A1.868,1.868,0,0,1,39.8,5.2Z" transform="translate(6.575 0.612)" fill="#19a5f6"/>
  </g>
</svg>
