<svg xmlns="http://www.w3.org/2000/svg" width="63.3" height="37.17" viewBox="0 0 63.3 37.17">
  <g id="rest" transform="translate(-2.2 -11)">
    <path id="Path_7" data-name="Path 7" d="M10.864,25.393a11.336,11.336,0,0,0,1.537-.419c.838-3.354,2.375-5.03,5.03-5.31s4.611.978,6.288,4.192c2.1-1.258,4.332-1.118,6.568-1.118h26.27c5.45,0,8.943,3.493,8.943,8.943V46.074c0,1.677-.419,2.1-2.1,2.1H58.933c-1.537,0-1.956-.419-1.956-1.956V40.9H10.724v4.751c0,2.236-.279,2.515-2.515,2.515H3.877c-1.258,0-1.677-.419-1.677-1.677V12.817c0-1.258.419-1.677,1.817-1.817H8.628c1.677,0,2.1.419,2.1,2.1V24A4.308,4.308,0,0,1,10.864,25.393ZM62.705,45.235V34.476H10.165c-1.817,0-2.236-.419-2.236-2.236V13.655H5.134V45.1H7.929V40.2c0-2.1.279-2.375,2.376-2.375H56.837c2.795,0,2.934.14,2.934,2.934V45.1A22.682,22.682,0,0,0,62.705,45.235Zm0-13.554c0-.279.14-.419.14-.7a5.587,5.587,0,0,0-5.869-5.589H28.331a5.242,5.242,0,0,0-1.4.14C24,26.091,21.9,29.026,22.6,31.681Zm-47.37-6.428a2.926,2.926,0,0,0,2.795,2.934,2.926,2.926,0,0,0,2.795-2.934,2.795,2.795,0,0,0-5.589,0Zm3.913,6.009c-.279-.14-.279-.279-.419-.279a5.952,5.952,0,0,1-5.589-2.655c-.14-.279-.7-.279-.978-.279A1.71,1.71,0,0,0,10.864,30a1.952,1.952,0,0,0,1.817,1.817h5.03C18.27,31.681,18.689,31.4,19.248,31.262Z" transform="translate(0 0)" fill="#19a5f6"/>
  </g>
</svg>
